<?xml version="1.0" standalone="no"?>
<!DOCTYPE svg PUBLIC "-//W3C//DTD SVG 20010904//EN"
 "http://www.w3.org/TR/2001/REC-SVG-20010904/DTD/svg10.dtd">
<svg version="1.0" xmlns="http://www.w3.org/2000/svg"
 width="260.000000pt" height="260.000000pt" viewBox="0 0 260.000000 260.000000"
 preserveAspectRatio="xMidYMid meet">
<metadata>
Created by potrace 1.11, written by Peter Selinger 2001-2013
</metadata>
<g transform="translate(0.000000,260.000000) scale(0.100000,-0.100000)"
fill="#000000" stroke="none">
<path d="M1081 2593 c-1 -6 -9 -12 -18 -11 -10 0 -31 -3 -48 -7 -16 -4 -38 -7
-47 -7 -10 0 -18 -4 -18 -9 0 -6 -6 -9 -12 -6 -7 2 -32 -4 -55 -14 -24 -10
-43 -16 -43 -13 0 2 -12 -4 -27 -13 -15 -10 -28 -17 -30 -15 -10 8 -33 0 -27
-10 5 -8 0 -9 -14 -6 -12 4 -20 2 -16 -3 3 -5 -2 -9 -10 -9 -8 0 -21 -6 -28
-14 -12 -12 -51 -29 -70 -31 -3 0 -10 -4 -15 -9 -5 -5 -2 -6 6 -1 9 5 12 4 7
-3 -3 -6 -22 -16 -41 -22 -19 -6 -33 -15 -30 -20 4 -7 -17 -21 -35 -24 -3 -1
-15 -11 -28 -23 -12 -13 -27 -23 -33 -23 -5 0 -7 -4 -4 -10 3 -5 2 -10 -3 -10
-5 0 -40 -30 -78 -67 -38 -38 -72 -67 -76 -66 -4 2 -4 -5 -1 -14 4 -11 3 -14
-5 -9 -7 4 -12 2 -12 -6 -1 -18 -36 -58 -52 -58 -10 0 -9 -3 2 -10 9 -6 10
-10 3 -10 -6 0 -15 -9 -18 -20 -4 -11 -10 -18 -15 -15 -5 3 -11 -9 -15 -26 -4
-17 -13 -33 -21 -36 -8 -3 -12 -9 -9 -13 3 -5 -2 -16 -11 -24 -8 -9 -12 -16
-8 -16 3 0 2 -6 -3 -12 -5 -7 -18 -35 -28 -63 -10 -27 -22 -54 -26 -59 -5 -6
-9 -18 -9 -28 0 -10 -4 -18 -8 -18 -4 0 -9 -8 -10 -17 -1 -10 -4 -27 -6 -38
-2 -11 -5 -24 -5 -28 -1 -5 -5 -6 -10 -3 -5 4 -7 -4 -3 -16 3 -13 1 -19 -5
-15 -16 10 -17 -551 -1 -571 7 -9 8 -13 3 -10 -7 4 -11 -8 -10 -32 0 -32 2
-36 14 -27 12 10 12 9 2 -10 -10 -19 -8 -26 10 -44 12 -12 22 -32 22 -45 0
-15 4 -21 11 -17 6 3 8 3 4 -2 -4 -4 -2 -15 5 -23 9 -13 9 -14 -1 -8 -14 8
-12 -28 3 -41 4 -5 5 -3 1 4 -3 6 -1 15 5 19 9 5 10 -8 7 -47 -3 -30 -3 -48
-1 -41 3 6 9 10 14 7 5 -4 6 0 3 8 -3 8 0 18 7 23 8 4 10 3 5 -5 -4 -6 -3 -18
3 -25 7 -8 10 -20 9 -27 -2 -8 3 -13 10 -11 8 1 11 -2 8 -7 -3 -5 1 -12 10
-15 8 -3 13 -10 9 -15 -3 -5 -1 -12 4 -16 6 -3 8 -12 5 -20 -4 -8 -11 -12 -16
-9 -6 4 -6 9 2 14 8 5 8 9 -3 13 -15 6 -18 -15 -5 -29 4 -3 4 -12 1 -20 -3 -8
0 -14 7 -14 6 0 9 4 6 9 -3 5 1 14 9 21 13 11 15 9 11 -11 -3 -13 -5 -24 -6
-24 -8 0 -6 -36 2 -42 7 -4 8 -1 3 7 -5 9 -1 10 16 6 24 -7 24 -7 -1 8 -22 14
-21 21 4 17 5 -1 4 5 -4 13 -8 11 -9 16 -1 16 10 0 15 -13 12 -32 0 -5 3 -8 9
-8 5 0 10 -9 10 -19 0 -11 6 -22 13 -24 9 -4 9 -8 1 -14 -9 -6 -8 -11 1 -20
10 -10 14 -9 19 3 3 8 1 12 -4 9 -6 -3 -7 1 -4 10 4 9 7 15 8 13 1 -2 9 -13
19 -24 17 -20 17 -23 2 -38 -9 -9 -12 -16 -6 -16 5 0 12 4 16 10 8 13 55 -30
55 -50 0 -26 -12 -31 -26 -12 -7 9 -14 12 -14 6 0 -6 6 -17 14 -23 11 -10 17
-7 30 11 11 15 16 18 16 7 0 -8 -5 -20 -11 -26 -8 -8 -8 -16 0 -30 11 -16 11
-16 6 4 -4 16 0 25 15 33 16 8 20 8 18 -2 -2 -7 3 -12 11 -10 11 2 12 0 3 -10
-6 -8 -7 -19 -3 -27 6 -9 11 -10 15 -2 4 6 2 11 -5 11 -7 0 -10 2 -7 5 7 7 60
-21 56 -30 -2 -4 13 -15 32 -26 19 -10 29 -18 23 -19 -7 0 -13 -5 -13 -11 0
-6 9 -8 22 -3 20 6 21 5 9 -10 -8 -9 -11 -19 -7 -23 3 -3 6 -2 6 4 0 6 7 14
16 17 10 4 13 2 8 -6 -5 -8 -2 -9 10 -5 11 4 15 3 11 -4 -4 -6 -13 -8 -21 -5
-8 3 -14 1 -14 -5 0 -7 10 -9 26 -5 14 4 23 3 20 -2 -3 -5 1 -9 9 -9 8 0 12 5
8 10 -3 5 4 4 16 -2 11 -7 21 -17 21 -23 0 -6 3 -9 6 -5 6 6 83 -29 94 -42 3
-3 10 -7 15 -8 6 -1 47 -15 92 -31 45 -16 85 -27 88 -24 3 3 5 0 5 -6 0 -6 7
-9 15 -6 8 4 15 2 15 -2 0 -14 61 -17 315 -17 258 0 326 4 318 16 -2 4 5 8 16
8 21 2 37 5 46 9 3 1 10 4 15 5 6 1 12 4 15 5 3 1 8 3 13 5 17 5 48 17 65 26
10 5 23 7 29 3 7 -4 8 -3 4 4 -5 8 0 12 13 12 11 0 23 5 26 11 4 6 13 8 21 5
8 -3 14 1 14 10 0 11 6 15 20 11 11 -3 18 0 17 7 -1 6 5 11 13 11 8 0 23 9 33
19 9 10 17 15 17 10 0 -5 4 -4 8 1 10 14 88 75 96 75 4 0 23 15 43 32 59 52
166 158 159 158 -5 0 19 29 67 81 9 10 18 22 20 27 1 4 5 6 9 5 4 -2 5 3 2 11
-3 7 3 22 13 31 10 10 18 21 18 24 1 3 11 21 22 40 12 19 20 38 17 43 -3 4 0
8 6 8 6 0 8 5 4 12 -5 8 -1 9 12 4 15 -6 16 -4 7 5 -7 7 -8 17 -3 28 30 53 65
150 62 169 -2 6 1 12 6 12 5 0 9 6 9 13 0 6 4 28 8 47 5 19 8 45 8 58 -1 12 3
22 8 22 4 0 8 103 7 230 -1 126 -5 227 -10 224 -4 -3 -8 2 -8 11 0 9 4 13 10
10 6 -3 7 1 4 9 -3 9 -10 13 -15 10 -5 -3 -6 2 -3 10 3 9 11 13 16 10 6 -4 5
3 -1 15 -9 16 -9 21 1 21 8 0 6 5 -5 11 -13 8 -15 14 -7 29 13 25 13 26 -11
27 -29 2 -45 18 -28 28 7 5 10 4 6 -1 -3 -5 3 -10 14 -10 19 0 19 1 3 13 -10
7 -14 20 -11 32 3 13 1 18 -9 14 -7 -2 -10 -11 -8 -18 3 -7 1 -16 -5 -20 -6
-3 -9 0 -5 8 3 8 1 18 -5 22 -17 10 -13 43 7 55 14 8 12 9 -10 4 -18 -4 -28
-2 -28 6 0 6 4 8 10 5 5 -3 7 0 4 9 -3 9 -13 12 -22 9 -13 -4 -12 -1 3 10 20
16 20 16 -3 12 -12 -2 -20 0 -17 4 2 5 -2 14 -10 21 -8 7 -13 16 -10 20 3 4
-1 13 -9 19 -7 6 -11 22 -9 35 4 18 0 26 -15 30 -11 4 -22 16 -25 27 -4 14
-10 18 -19 13 -7 -4 -4 3 7 16 11 13 15 20 8 17 -6 -4 -13 -4 -16 0 -2 5 -2 2
-1 -4 2 -7 -1 -13 -6 -13 -6 0 -10 9 -10 21 0 15 -5 19 -16 15 -8 -3 -12 -2
-9 4 3 6 -1 13 -10 16 -12 5 -13 9 -4 20 6 8 16 14 21 14 6 0 5 -6 -1 -14 -10
-12 -8 -17 9 -26 23 -12 36 -8 26 9 -4 6 -14 7 -24 4 -14 -6 -15 -4 -4 9 10
13 6 19 -25 41 -21 15 -51 36 -68 48 -16 12 -24 16 -17 9 6 -8 12 -19 12 -24
0 -6 -5 -3 -11 7 -6 9 -14 15 -20 12 -5 -3 -6 1 -3 10 5 11 2 15 -7 13 -8 -1
-14 2 -14 7 0 6 5 9 12 7 7 -2 13 1 13 7 0 5 -15 8 -32 6 -18 -2 -27 -1 -20 2
15 6 16 33 1 33 -5 0 -8 -4 -5 -9 4 -5 -2 -8 -11 -7 -9 2 -19 8 -21 14 -2 7
-8 9 -14 6 -6 -4 -5 2 1 15 13 23 23 28 20 9 -1 -7 -1 -20 0 -28 1 -12 4 -11
12 3 6 9 14 15 20 12 5 -4 9 -1 9 5 0 7 -6 10 -14 7 -18 -7 -28 17 -14 31 7 7
4 14 -11 21 -14 8 -21 8 -21 1 0 -5 7 -10 17 -10 14 0 14 -2 -2 -20 -28 -31
-76 -23 -56 9 6 9 11 10 15 2 4 -6 2 -11 -5 -11 -7 0 -10 -3 -6 -6 3 -3 13 -1
23 4 16 9 15 11 -7 22 -13 8 -26 13 -29 12 -3 -1 -13 5 -23 13 -10 9 -23 13
-30 10 -7 -4 -3 1 7 9 11 9 15 16 9 16 -7 0 -15 -5 -18 -10 -4 -6 -11 -7 -17
-4 -7 4 -8 2 -4 -4 10 -16 -7 -15 -23 1 -11 10 -13 9 -7 -3 5 -9 2 -8 -7 3 -8
9 -22 17 -31 17 -10 0 -14 5 -10 11 4 8 -1 9 -16 4 -19 -6 -22 -4 -17 9 4 9 3
15 -1 15 -28 -4 -52 2 -46 13 4 7 3 8 -5 4 -6 -4 -18 -2 -26 4 -8 7 -15 10
-15 6 0 -4 -13 0 -29 8 -16 9 -31 12 -35 9 -3 -4 -6 -1 -6 6 0 6 -6 11 -12 10
-28 -3 -39 1 -32 14 6 9 5 9 -8 0 -8 -7 -18 -10 -22 -6 -4 4 -19 9 -34 11 -15
2 -29 6 -32 10 -8 11 -50 14 -259 18 -126 3 -198 0 -206 -6 -9 -8 -15 -7 -18
2 -4 9 -6 9 -6 1z m973 -214 c-8 -14 -24 -10 -24 6 0 8 -3 14 -7 14 -5 -1 -15
-1 -23 0 -13 1 -13 3 -1 10 16 11 64 -16 55 -30z m260 -221 c-3 -4 -10 -8 -16
-8 -6 0 -8 3 -5 7 4 3 -3 11 -15 17 -13 6 -24 20 -26 30 -3 15 2 14 31 -10 20
-15 33 -32 31 -36z m101 -166 c-3 -3 -11 0 -18 7 -9 10 -8 11 6 5 10 -3 15 -9
12 -12z m155 -309 c0 -7 -4 -13 -9 -13 -5 0 -11 6 -14 13 -3 8 1 14 9 14 8 0
14 -6 14 -14z m6 -48 c1 -8 -3 -18 -8 -22 -6 -3 -8 -1 -4 5 3 6 2 13 -4 17 -6
4 -8 11 -4 16 7 12 17 4 20 -16z m-2551 -644 c3 -5 2 -12 -3 -15 -5 -3 -9 1
-9 9 0 17 3 19 12 6z"/>
<path d="M2280 2596 c0 -2 7 -7 16 -10 8 -3 12 -2 9 4 -6 10 -25 14 -25 6z"/>
<path d="M2395 2591 c-3 -5 0 -13 6 -17 8 -5 9 -3 4 6 -6 10 -4 12 9 7 10 -4
15 -3 11 3 -8 13 -22 13 -30 1z"/>
<path d="M2334 2561 c0 -12 6 -17 18 -13 10 2 18 9 18 15 0 6 -3 7 -7 4 -3 -4
-11 -3 -17 3 -8 6 -12 3 -12 -9z"/>
<path d="M2532 2571 c-11 -6 -10 -10 0 -19 11 -8 14 -7 14 9 0 10 0 19 -1 19
0 0 -6 -4 -13 -9z"/>
<path d="M2573 2558 c0 -13 1 -17 4 -10 3 6 10 9 16 5 7 -4 6 1 -2 10 -17 21
-17 21 -18 -5z"/>
<path d="M2455 2560 c-2 -3 10 -6 26 -6 16 -1 29 1 29 5 0 8 -50 9 -55 1z"/>
<path d="M2268 2536 c4 -6 7 -14 7 -18 0 -3 4 -10 9 -15 6 -5 6 -2 1 6 -6 10
-4 13 7 9 8 -4 15 -1 15 7 0 8 -7 11 -15 7 -9 -3 -13 -1 -9 5 3 5 0 10 -8 10
-8 0 -11 -5 -7 -11z"/>
<path d="M2200 2520 c-8 -5 -10 -10 -5 -10 6 0 17 5 25 10 8 5 11 10 5 10 -5
0 -17 -5 -25 -10z"/>
<path d="M2373 2514 c0 -9 8 -9 29 -2 35 13 35 15 0 14 -16 -1 -29 -6 -29 -12z"/>
<path d="M2576 2518 c3 -5 10 -6 15 -3 13 9 11 12 -6 12 -8 0 -12 -4 -9 -9z"/>
<path d="M2507 2507 c-3 -8 1 -14 8 -14 7 0 11 6 8 14 -3 7 -6 13 -8 13 -2 0
-5 -6 -8 -13z"/>
<path d="M2161 2496 c-9 -10 -8 -15 3 -19 9 -4 18 -1 22 5 5 7 2 8 -6 3 -10
-6 -12 -4 -7 8 8 21 3 22 -12 3z"/>
<path d="M2233 2491 c10 -12 9 -14 -4 -9 -9 4 -16 1 -16 -7 0 -8 7 -11 15 -7
11 4 13 1 7 -8 -6 -9 -4 -11 4 -6 7 5 10 10 7 14 -3 3 2 11 12 19 16 12 16 13
-2 6 -12 -4 -17 -3 -13 4 3 5 0 10 -8 10 -12 0 -12 -3 -2 -16z"/>
<path d="M2430 2494 c6 -6 7 -14 3 -17 -3 -4 -2 -7 4 -7 6 0 13 8 15 18 4 12
-1 18 -13 18 -12 0 -15 -4 -9 -12z"/>
<path d="M2115 2491 c-3 -5 0 -13 6 -17 7 -4 9 -3 5 4 -3 5 0 13 6 15 9 4 10
6 1 6 -6 1 -14 -3 -18 -8z"/>
<path d="M2080 2480 c-9 -6 -10 -10 -3 -10 6 0 15 5 18 10 8 12 4 12 -15 0z"/>
<path d="M2287 2479 c7 -7 15 -10 18 -7 3 3 -2 9 -12 12 -14 6 -15 5 -6 -5z"/>
<path d="M2357 2476 c-3 -8 0 -17 7 -19 10 -4 12 1 9 14 -6 23 -9 24 -16 5z"/>
<path d="M2550 2480 c0 -5 5 -10 10 -10 6 0 10 5 10 10 0 6 -4 10 -10 10 -5 0
-10 -4 -10 -10z"/>
<path d="M2097 2463 c-10 -10 -8 -33 3 -33 5 0 6 7 3 17 -5 12 -3 14 7 8 9 -5
11 -4 6 3 -8 14 -10 14 -19 5z"/>
<path d="M2139 2463 c-1 -5 0 -16 1 -27 1 -12 -2 -16 -11 -11 -8 5 -10 4 -5
-4 11 -17 29 -2 23 20 -3 10 0 20 7 23 7 3 7 5 -1 5 -7 1 -14 -2 -14 -6z"/>
<path d="M2061 2444 c0 -11 3 -14 6 -6 3 7 2 16 -1 19 -3 4 -6 -2 -5 -13z"/>
<path d="M2275 2450 c-3 -6 1 -7 9 -4 18 7 21 14 7 14 -6 0 -13 -4 -16 -10z"/>
<path d="M2316 2447 c3 -10 9 -15 12 -12 3 3 0 11 -7 18 -10 9 -11 8 -5 -6z"/>
<path d="M2184 2438 c-4 -7 -4 -10 1 -6 4 4 14 0 21 -10 12 -15 12 -15 7 6 -6
24 -18 29 -29 10z"/>
<path d="M2390 2439 c0 -3 9 -9 19 -12 13 -3 18 0 15 7 -5 13 -34 18 -34 5z"/>
<path d="M2456 2433 c-6 -14 -5 -15 5 -6 7 7 10 15 7 18 -3 3 -9 -2 -12 -12z"/>
<path d="M2478 2432 c-3 -11 0 -19 7 -19 7 0 10 8 7 19 -2 10 -6 18 -7 18 -1
0 -5 -8 -7 -18z"/>
<path d="M2156 2413 c-6 -14 -5 -15 5 -6 7 7 10 15 7 18 -3 3 -9 -2 -12 -12z"/>
<path d="M2363 2422 c-7 -4 -9 -13 -4 -21 6 -9 10 -7 14 8 3 12 4 21 4 21 -1
0 -7 -4 -14 -8z"/>
<path d="M2068 2413 c6 -2 18 -2 25 0 6 3 1 5 -13 5 -14 0 -19 -2 -12 -5z"/>
<path d="M2574 2399 c0 -13 3 -15 13 -7 7 6 13 12 13 13 0 2 -6 5 -13 8 -7 3
-13 -3 -13 -14z"/>
<path d="M2427 2391 c-3 -13 0 -18 7 -15 7 3 13 11 13 19 0 22 -14 18 -20 -4z"/>
<path d="M2506 2402 c-3 -5 1 -9 9 -9 8 0 12 4 9 9 -3 4 -7 8 -9 8 -2 0 -6 -4
-9 -8z"/>
<path d="M2170 2391 c0 -6 4 -13 10 -16 6 -3 7 1 4 9 -7 18 -14 21 -14 7z"/>
<path d="M2296 2391 c-4 -5 3 -7 14 -4 23 6 26 13 6 13 -8 0 -17 -4 -20 -9z"/>
<path d="M2228 2383 c7 -3 16 -2 19 1 4 3 -2 6 -13 5 -11 0 -14 -3 -6 -6z"/>
<path d="M2205 2360 c-3 -6 1 -7 9 -4 18 7 21 14 7 14 -6 0 -13 -4 -16 -10z"/>
<path d="M2277 2356 c-4 -10 -1 -13 8 -9 8 3 12 9 9 14 -7 12 -11 11 -17 -5z"/>
<path d="M2336 2355 c-3 -8 0 -17 6 -21 6 -4 8 -3 4 4 -3 5 -1 12 6 14 8 3 9
6 1 11 -6 4 -13 0 -17 -8z"/>
<path d="M2437 2351 c-10 -14 -10 -14 4 -4 9 7 18 10 21 7 3 -3 8 -1 12 4 9
16 -24 9 -37 -7z"/>
<path d="M2515 2359 c-3 -4 2 -6 10 -5 21 3 28 13 10 13 -9 0 -18 -4 -20 -8z"/>
<path d="M2559 2363 c0 -5 -3 -19 -5 -32 -2 -14 -2 -22 1 -19 8 8 17 58 10 58
-3 0 -5 -3 -6 -7z"/>
<path d="M2186 2317 c3 -10 9 -15 12 -12 3 3 0 11 -7 18 -10 9 -11 8 -5 -6z"/>
<path d="M2226 2315 c4 -8 11 -15 16 -15 6 0 5 6 -2 15 -7 8 -14 15 -16 15 -2
0 -1 -7 2 -15z"/>
<path d="M2300 2308 c-10 -22 -10 -22 4 -4 8 10 20 15 27 10 8 -4 10 -3 5 4
-11 18 -24 14 -36 -10z"/>
<path d="M2360 2315 c-19 -22 -8 -25 13 -3 9 10 13 18 8 18 -5 0 -14 -7 -21
-15z"/>
<path d="M2270 2310 c-9 -6 -10 -10 -3 -10 6 0 15 5 18 10 8 12 4 12 -15 0z"/>
<path d="M2456 2311 c-4 -5 3 -7 14 -4 23 6 26 13 6 13 -8 0 -17 -4 -20 -9z"/>
<path d="M2390 2290 c6 -11 13 -20 16 -20 2 0 0 9 -6 20 -6 11 -13 20 -16 20
-2 0 0 -9 6 -20z"/>
<path d="M2430 2303 c0 -6 8 -17 18 -24 16 -13 16 -13 2 6 -8 11 -16 22 -17
24 -2 2 -3 0 -3 -6z"/>
<path d="M2511 2294 c6 -7 8 -18 5 -23 -4 -5 -1 -13 5 -17 8 -5 9 -3 4 6 -6 9
-4 12 6 8 10 -4 15 1 15 12 0 11 -5 16 -15 12 -8 -3 -12 -1 -8 5 3 5 0 10 -8
10 -11 0 -12 -4 -4 -13z"/>
<path d="M2330 2291 c0 -6 4 -13 10 -16 6 -3 7 1 4 9 -7 18 -14 21 -14 7z"/>
<path d="M2250 2280 c0 -5 5 -10 10 -10 6 0 10 5 10 10 0 6 -4 10 -10 10 -5 0
-10 -4 -10 -10z"/>
<path d="M2305 2279 c-4 -6 -5 -12 -2 -15 2 -3 7 2 10 11 7 17 1 20 -8 4z"/>
<path d="M2365 2279 c-4 -6 -5 -12 -2 -15 2 -3 7 2 10 11 7 17 1 20 -8 4z"/>
<path d="M2230 2260 c8 -5 20 -10 25 -10 6 0 3 5 -5 10 -8 5 -19 10 -25 10 -5
0 -3 -5 5 -10z"/>
<path d="M2276 2254 c-7 -19 12 -47 25 -38 5 3 9 13 8 22 0 14 -2 14 -8 -2 -5
-12 -10 -16 -14 -9 -4 6 -4 18 -1 27 3 9 4 16 1 16 -3 0 -8 -7 -11 -16z"/>
<path d="M2395 2249 c-4 -6 -5 -12 -2 -15 2 -3 7 2 10 11 7 17 1 20 -8 4z"/>
<path d="M2340 2240 c0 -5 5 -10 11 -10 5 0 7 5 4 10 -3 6 -8 10 -11 10 -2 0
-4 -4 -4 -10z"/>
<path d="M2415 2239 c-6 -8 -4 -10 5 -4 10 6 12 4 6 -11 -6 -15 -5 -17 5 -6 9
9 10 15 2 23 -8 8 -13 7 -18 -2z"/>
<path d="M2544 2242 c4 -3 14 -7 22 -8 9 -1 13 0 10 4 -4 3 -14 7 -22 8 -9 1
-13 0 -10 -4z"/>
<path d="M2317 2215 c-6 -15 10 -32 20 -21 4 3 1 6 -5 6 -6 0 -9 7 -6 15 4 8
4 15 1 15 -3 0 -7 -7 -10 -15z"/>
<path d="M2360 2214 c0 -6 7 -19 16 -30 14 -18 14 -18 3 6 -14 31 -19 36 -19
24z"/>
<path d="M2577 2205 c3 -8 9 -12 14 -9 12 7 11 11 -5 17 -10 4 -13 1 -9 -8z"/>
<path d="M2395 2200 c-3 -5 -1 -10 4 -10 6 0 11 5 11 10 0 6 -2 10 -4 10 -3 0
-8 -4 -11 -10z"/>
<path d="M2450 2202 c0 -5 7 -9 15 -9 8 0 12 4 9 9 -3 4 -9 8 -15 8 -5 0 -9
-4 -9 -8z"/>
<path d="M2514 2195 c1 -8 6 -18 11 -22 4 -5 5 -2 0 6 -6 11 -4 13 8 8 23 -9
21 0 -2 13 -15 7 -19 7 -17 -5z"/>
<path d="M2350 2181 c0 -6 4 -13 10 -16 6 -3 7 1 4 9 -7 18 -14 21 -14 7z"/>
<path d="M2426 2164 c-9 -24 -2 -26 12 -4 7 11 8 20 3 20 -5 0 -12 -7 -15 -16z"/>
<path d="M2475 2160 c-3 -5 -1 -10 4 -10 6 0 11 5 11 10 0 6 -2 10 -4 10 -3 0
-8 -4 -11 -10z"/>
<path d="M2550 2160 c0 -5 5 -10 10 -10 6 0 10 5 10 10 0 6 -4 10 -10 10 -5 0
-10 -4 -10 -10z"/>
<path d="M2375 2150 c-7 -11 22 -26 32 -16 4 3 -1 6 -11 6 -9 0 -14 5 -11 10
3 6 4 10 1 10 -3 0 -8 -5 -11 -10z"/>
<path d="M2493 2137 c-3 -6 -1 -7 5 -3 5 3 12 1 14 -6 2 -6 12 -12 21 -14 9
-1 15 2 11 7 -3 5 -10 6 -16 3 -7 -5 -9 -2 -6 8 7 16 -19 21 -29 5z"/>
<path d="M2574 2121 c0 -11 5 -17 13 -14 10 4 11 9 2 19 -15 18 -15 18 -15 -5z"/>
<path d="M2454 2115 c1 -8 6 -18 11 -22 4 -5 5 -2 0 6 -6 11 -4 13 8 8 23 -9
21 0 -2 13 -15 7 -19 7 -17 -5z"/>
<path d="M2380 2106 c0 -2 7 -6 15 -10 8 -3 15 -1 15 4 0 6 -7 10 -15 10 -8 0
-15 -2 -15 -4z"/>
<path d="M2419 2088 c-1 -7 -1 -17 0 -22 1 -5 -5 -6 -14 -3 -8 4 -15 2 -15 -4
0 -20 33 -4 36 19 2 12 2 22 -1 22 -3 0 -6 -6 -6 -12z"/>
<path d="M2447 2079 c7 -7 15 -10 18 -7 3 3 -2 9 -12 12 -14 6 -15 5 -6 -5z"/>
<path d="M2556 2074 c-8 -20 -8 -24 2 -24 4 0 8 9 9 20 2 24 -3 26 -11 4z"/>
<path d="M2435 2050 c-3 -6 1 -7 9 -4 18 7 21 14 7 14 -6 0 -13 -4 -16 -10z"/>
<path d="M2507 2031 c-4 -17 -3 -21 5 -13 5 5 8 16 6 23 -3 8 -7 3 -11 -10z"/>
<path d="M2577 2036 c-4 -10 -1 -13 8 -9 8 3 12 9 9 14 -7 12 -11 11 -17 -5z"/>
<path d="M2415 2030 c3 -4 16 -10 30 -12 13 -3 22 -2 20 2 -3 4 -16 10 -30 12
-13 3 -22 2 -20 -2z"/>
<path d="M2446 1997 c3 -10 9 -15 12 -12 3 3 0 11 -7 18 -10 9 -11 8 -5 -6z"/>
<path d="M2487 1999 c7 -7 15 -10 18 -7 3 3 -2 9 -12 12 -14 6 -15 5 -6 -5z"/>
<path d="M2546 2002 c-3 -5 1 -9 9 -9 8 0 15 4 15 9 0 4 -4 8 -9 8 -6 0 -12
-4 -15 -8z"/>
<path d="M2542 1960 c0 -14 2 -19 5 -12 2 6 2 18 0 25 -3 6 -5 1 -5 -13z"/>
<path d="M2440 1955 c7 -8 17 -15 22 -15 5 0 3 7 -6 15 -8 8 -18 15 -22 15 -3
0 -1 -7 6 -15z"/>
<path d="M2472 1956 c7 -8 15 -12 17 -11 5 6 -10 25 -20 25 -5 0 -4 -6 3 -14z"/>
<path d="M2575 1959 c-4 -6 -4 -13 -1 -16 3 -4 6 -1 6 6 0 7 5 9 12 5 7 -4 8
-3 4 4 -9 15 -13 15 -21 1z"/>
<path d="M2461 1915 c9 -9 23 -13 32 -9 18 7 23 24 7 24 -5 0 -10 -4 -10 -10
0 -5 -5 -10 -11 -10 -5 0 -7 5 -4 10 3 6 -2 10 -12 10 -16 0 -16 -2 -2 -15z"/>
<path d="M2550 1916 c7 -7 13 -7 20 0 6 6 3 10 -10 10 -13 0 -16 -4 -10 -10z"/>
<path d="M2512 1880 c0 -14 2 -19 5 -12 2 6 2 18 0 25 -3 6 -5 1 -5 -13z"/>
<path d="M2550 1820 c0 -5 5 -10 10 -10 6 0 10 5 10 10 0 6 -4 10 -10 10 -5 0
-10 -4 -10 -10z"/>
<path d="M2520 1800 c0 -5 5 -10 10 -10 6 0 10 5 10 10 0 6 -4 10 -10 10 -5 0
-10 -4 -10 -10z"/>
<path d="M4 879 c-3 -6 -2 -15 3 -20 5 -5 9 -1 9 11 0 23 -2 24 -12 9z"/>
<path d="M33 854 c0 -17 2 -22 7 -13 5 6 6 18 3 26 -8 19 -10 16 -10 -13z"/>
<path d="M37 807 c-3 -8 -2 -20 3 -26 5 -9 8 -4 8 13 0 29 -3 32 -11 13z"/>
<path d="M9 763 c-13 -16 -12 -17 4 -4 9 7 17 15 17 17 0 8 -8 3 -21 -13z"/>
<path d="M44 719 c-4 -7 -3 -9 4 -5 5 3 13 0 15 -6 4 -9 6 -10 6 -1 1 17 -16
25 -25 12z"/>
<path d="M20 706 c0 -2 8 -10 18 -17 15 -13 16 -12 3 4 -13 16 -21 21 -21 13z"/>
<path d="M85 659 c-19 -9 -19 -9 2 -5 12 2 31 -3 43 -11 12 -8 23 -13 25 -11
3 2 -8 11 -23 20 -19 11 -33 13 -47 7z"/>
<path d="M31 647 c2 -1 13 -9 24 -17 19 -14 19 -14 6 3 -7 9 -18 17 -24 17 -6
0 -8 -1 -6 -3z"/>
<path d="M116 627 c3 -10 9 -15 12 -12 3 3 0 11 -7 18 -10 9 -11 8 -5 -6z"/>
<path d="M75 590 c-3 -5 -3 -10 1 -10 4 0 -1 -10 -12 -22 -19 -23 -19 -23 2
-5 11 9 21 24 21 32 0 18 -3 19 -12 5z"/>
<path d="M111 587 c-8 -10 -7 -14 2 -14 8 0 14 6 14 14 0 7 -1 13 -2 13 -2 0
-8 -6 -14 -13z"/>
<path d="M20 584 c0 -1 8 -8 17 -15 9 -8 14 -9 10 -2 -4 6 -1 13 5 16 7 3 3 4
-9 4 -13 -1 -23 -2 -23 -3z"/>
<path d="M0 566 c0 -2 8 -10 18 -17 15 -13 16 -12 3 4 -13 16 -21 21 -21 13z"/>
<path d="M19 513 c-13 -16 -12 -17 4 -4 9 7 17 15 17 17 0 8 -8 3 -21 -13z"/>
<path d="M70 520 c0 -5 5 -10 11 -10 5 0 7 5 4 10 -3 6 -8 10 -11 10 -2 0 -4
-4 -4 -10z"/>
<path d="M154 483 c8 -9 66 -14 66 -6 0 4 -16 9 -35 9 -20 1 -34 -1 -31 -3z"/>
<path d="M30 466 c0 -2 7 -7 16 -10 8 -3 12 -2 9 4 -6 10 -25 14 -25 6z"/>
<path d="M144 462 c4 -7 2 -21 -5 -30 -12 -15 -11 -15 6 0 16 15 17 20 6 30
-11 11 -13 10 -7 0z"/>
<path d="M273 445 c0 -8 4 -12 9 -9 5 3 6 10 3 15 -9 13 -12 11 -12 -6z"/>
<path d="M10 410 c-9 -6 -10 -10 -3 -10 6 0 15 5 18 10 8 12 4 12 -15 0z"/>
<path d="M218 408 c8 -9 11 -21 8 -26 -3 -5 1 -9 9 -9 8 0 13 3 10 5 -3 3 1
12 8 20 10 13 9 14 -1 8 -7 -4 -20 -2 -30 6 -15 12 -16 11 -4 -4z"/>
<path d="M303 395 c0 -8 5 -11 10 -8 5 3 13 -1 18 -8 6 -10 9 -10 9 -2 0 7 -8
17 -18 22 -14 7 -19 6 -19 -4z"/>
<path d="M33 387 c0 -8 6 -14 14 -14 9 0 10 4 2 14 -6 7 -12 13 -14 13 -1 0
-2 -6 -2 -13z"/>
<path d="M191 387 c-8 -10 -7 -14 2 -14 8 0 14 6 14 14 0 7 -1 13 -2 13 -2 0
-8 -6 -14 -13z"/>
<path d="M267 386 c-4 -10 -1 -13 8 -9 8 3 12 9 9 14 -7 12 -11 11 -17 -5z"/>
<path d="M146 382 c-3 -5 1 -9 9 -9 8 0 12 4 9 9 -3 4 -7 8 -9 8 -2 0 -6 -4
-9 -8z"/>
<path d="M113 333 c0 -9 4 -10 14 -2 7 6 13 12 13 14 0 1 -6 2 -13 2 -8 0 -14
-6 -14 -14z"/>
<path d="M196 342 c-2 -4 2 -16 10 -27 8 -10 14 -14 14 -8 0 7 -5 15 -10 18
-6 4 -8 11 -5 16 4 5 4 9 1 9 -3 0 -7 -3 -10 -8z"/>
<path d="M227 339 c7 -7 15 -10 18 -7 3 3 -2 9 -12 12 -14 6 -15 5 -6 -5z"/>
<path d="M55 329 c-4 -6 -5 -12 -2 -15 2 -3 7 2 10 11 7 17 1 20 -8 4z"/>
<path d="M381 314 c0 -11 3 -14 6 -6 3 7 2 16 -1 19 -3 4 -6 -2 -5 -13z"/>
<path d="M76 312 c-2 -4 4 -8 14 -8 10 0 16 4 14 8 -3 4 -9 8 -14 8 -5 0 -11
-4 -14 -8z"/>
<path d="M150 296 c7 -7 13 -7 20 0 6 6 3 10 -10 10 -13 0 -16 -4 -10 -10z"/>
<path d="M56 287 c3 -10 9 -15 12 -12 3 3 0 11 -7 18 -10 9 -11 8 -5 -6z"/>
<path d="M255 289 c-4 -6 -5 -12 -2 -15 2 -3 7 2 10 11 7 17 1 20 -8 4z"/>
<path d="M430 282 c0 -7 5 -12 11 -12 5 0 7 -5 4 -10 -4 -6 -3 -10 2 -9 20 4
24 -2 12 -18 -13 -15 -12 -15 8 -2 12 7 21 13 20 14 -1 0 -14 11 -29 24 -16
14 -28 19 -28 13z"/>
<path d="M29 263 c-13 -16 -12 -17 4 -4 16 13 21 21 13 21 -2 0 -10 -8 -17
-17z"/>
<path d="M270 276 c0 -2 8 -10 18 -17 15 -13 16 -12 3 4 -13 16 -21 21 -21 13z"/>
<path d="M414 262 c10 -17 -13 -25 -32 -11 -15 12 -15 12 1 -7 9 -11 15 -23
12 -26 -3 -2 2 -5 10 -5 8 0 12 4 9 9 -3 5 -1 15 6 23 8 10 8 15 -1 21 -7 4
-9 3 -5 -4z"/>
<path d="M49 243 c-8 -9 -9 -14 -2 -10 6 4 13 1 16 -5 3 -7 4 -3 4 10 -1 26
-1 26 -18 5z"/>
<path d="M253 238 c0 -13 1 -17 4 -10 3 6 10 9 16 5 7 -4 6 1 -2 10 -17 21
-17 21 -18 -5z"/>
<path d="M314 224 c0 -20 11 -25 11 -6 0 4 3 12 7 18 4 6 1 11 -5 11 -7 0 -13
-11 -13 -23z"/>
<path d="M352 227 c-8 -10 -6 -13 11 -14 12 0 16 1 9 4 -6 3 -10 9 -6 14 8 14
-2 11 -14 -4z"/>
<path d="M20 226 c0 -2 8 -10 18 -17 15 -13 16 -12 3 4 -13 16 -21 21 -21 13z"/>
<path d="M157 208 c9 -10 17 -18 17 -18 1 0 2 8 2 18 0 10 -8 18 -18 18 -16 0
-16 -2 -1 -18z"/>
<path d="M279 213 c-13 -16 -12 -17 4 -4 16 13 21 21 13 21 -2 0 -10 -8 -17
-17z"/>
<path d="M111 187 c-13 -21 -12 -21 5 -5 10 10 16 20 13 22 -3 3 -11 -5 -18
-17z"/>
<path d="M190 203 c0 -6 8 -17 18 -24 16 -13 16 -13 2 6 -8 11 -16 22 -17 24
-2 2 -3 0 -3 -6z"/>
<path d="M470 206 c0 -2 7 -6 15 -10 8 -3 15 -1 15 4 0 6 -7 10 -15 10 -8 0
-15 -2 -15 -4z"/>
<path d="M420 184 c0 -1 6 -7 14 -13 10 -9 15 -8 19 2 3 8 -3 13 -14 13 -11 0
-19 -1 -19 -2z"/>
<path d="M473 183 c4 -3 -1 -16 -10 -27 -18 -21 -18 -21 4 -2 20 16 23 36 6
36 -4 0 -3 -3 0 -7z"/>
<path d="M140 169 c0 -5 -4 -7 -10 -4 -14 9 -12 -1 3 -13 10 -8 13 -6 14 9 1
10 0 19 -3 19 -2 0 -4 -5 -4 -11z"/>
<path d="M173 163 c1 -17 4 -19 14 -11 15 12 18 22 4 14 -5 -4 -11 0 -14 6 -3
7 -4 3 -4 -9z"/>
<path d="M336 167 c3 -10 9 -15 12 -12 3 3 0 11 -7 18 -10 9 -11 8 -5 -6z"/>
<path d="M19 153 c-13 -16 -12 -17 4 -4 14 11 20 11 35 0 15 -13 16 -12 3 4
-7 9 -17 17 -21 17 -4 0 -14 -8 -21 -17z"/>
<path d="M259 153 c-13 -16 -12 -17 4 -4 14 11 20 11 35 0 15 -13 16 -12 3 4
-7 9 -17 17 -21 17 -4 0 -14 -8 -21 -17z"/>
<path d="M400 166 c0 -2 8 -10 18 -17 15 -13 16 -12 3 4 -13 16 -21 21 -21 13z"/>
<path d="M499 153 c-13 -17 -13 -17 6 -3 11 8 22 16 24 17 2 2 0 3 -6 3 -6 0
-17 -8 -24 -17z"/>
<path d="M386 142 c-3 -5 1 -9 9 -9 8 0 12 4 9 9 -3 4 -7 8 -9 8 -2 0 -6 -4
-9 -8z"/>
<path d="M335 129 c-4 -6 -14 -8 -24 -4 -13 5 -14 4 -3 -6 10 -11 15 -10 29 4
10 9 14 17 11 17 -4 0 -10 -5 -13 -11z"/>
<path d="M93 115 c0 -8 4 -12 9 -9 5 3 6 10 3 15 -9 13 -12 11 -12 -6z"/>
<path d="M150 116 c7 -7 13 -7 20 0 6 6 3 10 -10 10 -13 0 -16 -4 -10 -10z"/>
<path d="M215 121 c-3 -5 -2 -12 3 -15 5 -3 9 1 9 9 0 17 -3 19 -12 6z"/>
<path d="M417 111 c-10 -14 -10 -14 4 -4 9 7 18 10 21 7 3 -3 8 -1 12 4 9 16
-24 9 -37 -7z"/>
<path d="M349 103 c-13 -16 -12 -17 3 -5 9 8 23 10 29 6 8 -4 9 -3 5 4 -10 17
-21 15 -37 -5z"/>
<path d="M20 105 c0 -2 6 -8 13 -14 10 -8 14 -7 14 2 0 8 -6 14 -14 14 -7 0
-13 -1 -13 -2z"/>
<path d="M273 93 c0 -9 4 -10 14 -2 7 6 13 12 13 14 0 1 -6 2 -13 2 -8 0 -14
-6 -14 -14z"/>
<path d="M360 85 c0 -2 6 -8 13 -14 10 -8 14 -7 14 2 0 8 -6 14 -14 14 -7 0
-13 -1 -13 -2z"/>
<path d="M55 70 c-3 -6 1 -7 9 -4 18 7 21 14 7 14 -6 0 -13 -4 -16 -10z"/>
<path d="M240 76 c0 -2 7 -7 16 -10 8 -3 12 -2 9 4 -6 10 -25 14 -25 6z"/>
<path d="M80 55 c-7 -9 -11 -17 -9 -20 3 -2 10 5 17 15 14 24 10 26 -8 5z"/>
<path d="M110 66 c0 -2 7 -7 16 -10 8 -3 12 -2 9 4 -6 10 -25 14 -25 6z"/>
<path d="M185 60 c-3 -6 1 -7 9 -4 18 7 21 14 7 14 -6 0 -13 -4 -16 -10z"/>
<path d="M220 66 c0 -2 8 -10 18 -17 15 -13 16 -12 3 4 -13 16 -21 21 -21 13z"/>
<path d="M99 33 c-12 -16 -12 -17 2 -6 9 7 20 9 24 5 5 -4 5 -1 1 6 -9 16 -11
15 -27 -5z"/>
<path d="M256 33 c-6 -14 -5 -15 5 -6 7 7 10 15 7 18 -3 3 -9 -2 -12 -12z"/>
<path d="M149 23 c-13 -16 -12 -17 3 -5 9 8 23 10 29 6 8 -4 9 -3 5 4 -10 17
-21 15 -37 -5z"/>
</g>
</svg>
